<?xml version="1.0" encoding="iso-8859-1"?>
<!-- Generator: Adobe Illustrator 19.0.0, SVG Export Plug-In . SVG Version: 6.00 Build 0)  -->
<svg version="1.1" id="Layer_1" xmlns="http://www.w3.org/2000/svg" xmlns:xlink="http://www.w3.org/1999/xlink" x="0px" y="0px"
	 viewBox="0 0 488 488" style="enable-background:new 0 0 488 488;" xml:space="preserve">
<g transform="translate(0 -540.36)">
	<g>
		<g>
			<path d="M243.95,957.86c-5.5,0-10,4.5-10,10v50.5c0,5.5,4.5,10,10,10s10-4.5,10-10v-50.5
				C253.95,962.36,249.45,957.86,243.95,957.86z"/>
			<path d="M383.25,909.66c-3.9-3.9-10.2-3.9-14.1,0c-3.9,3.9-3.9,10.2,0,14.1l41.3,41.3c2,1.9,4.5,2.9,7.1,2.9c2.5,0,5.1-1,7-2.9
				c3.9-3.9,3.9-10.2,0-14.1L383.25,909.66z"/>
			<path d="M104.55,909.66l-41.3,41.3c-3.9,3.9-3.9,10.2,0,14.1c2,1.9,4.5,2.9,7.1,2.9c2.6,0,5.1-1,7-2.9l41.3-41.3
				c3.9-3.9,3.9-10.2,0-14.1C114.75,905.76,108.45,905.76,104.55,909.66z"/>
			<path d="M243.95,610.86c5.5,0,10-4.5,10-10v-50.5c0-5.5-4.5-10-10-10s-10,4.5-10,10v50.5
				C233.95,606.36,238.45,610.86,243.95,610.86z"/>
			<path d="M376.25,662.06c2.6,0,5.1-1,7-2.9l41.3-41.3c3.9-3.9,3.9-10.2,0-14.1c-3.9-3.9-10.2-3.9-14.1,0l-41.3,41.3
				c-3.9,3.9-3.9,10.2,0,14.1C371.15,661.06,373.65,662.06,376.25,662.06z"/>
			<path d="M104.55,659.16c2,1.9,4.5,2.9,7.1,2.9c2.6,0,5.1-1,7-2.9c3.9-3.9,3.9-10.2,0-14.1l-41.3-41.3c-3.9-3.9-10.2-3.9-14.1,0
				c-3.9,3.9-3.9,10.2,0,14.1L104.55,659.16z"/>
			<path d="M477.95,774.36h-50.5c-5.5,0-10,4.5-10,10s4.5,10,10,10h50.5c5.5,0,10-4.5,10-10S483.45,774.36,477.95,774.36z"/>
			<path d="M416.85,845.56c0-5.5-4.5-10-10-10h-40.8c6.6-15.8,10.3-33,10.3-51.2c0-73-59.4-132.4-132.4-132.4
				c-46.8,0-88,24.4-111.5,61.2h-61.3c-5.5,0-10,4.5-10,10s4.5,10,10,10h50.8c-5.4,12.8-8.8,26.7-9.9,41.2h-102c-5.5,0-10,4.5-10,10
				s4.5,10,10,10h102c5.1,68.3,62.4,122.4,132,122.4c46.8,0,88-24.4,111.5-61.2h51.3C412.35,855.56,416.85,851.06,416.85,845.56z
				 M344.05,835.56h-140.5c-5.5,0-10,4.5-10,10s4.5,10,10,10h127.4c-20.8,25.1-52,41.2-87,41.2c-58.6,0-106.8-45.1-111.9-102.4h81.3
				c5.5,0,10-4.5,10-10s-4.5-10-10-10h-81.3c1.3-14.7,5.5-28.6,11.9-41.2h130.6c5.5,0,10-4.5,10-10s-4.5-10-10-10h-117.5
				c20.6-25.1,51.9-41.2,86.9-41.2c62,0,112.4,50.4,112.4,112.4C356.35,802.76,351.85,820.16,344.05,835.56z"/>
		</g>
	</g>
</g>
<g>
</g>
<g>
</g>
<g>
</g>
<g>
</g>
<g>
</g>
<g>
</g>
<g>
</g>
<g>
</g>
<g>
</g>
<g>
</g>
<g>
</g>
<g>
</g>
<g>
</g>
<g>
</g>
<g>
</g>
</svg>
